<mxfile host="app.diagrams.net" modified="2021-03-30T23:20:55.862Z" agent="5.0 (Windows NT 10.0; Win64; x64) AppleWebKit/537.36 (KHTML, like Gecko) Chrome/89.0.4389.90 Safari/537.36" etag="Sk7gw1o5WAU20BmHNJOq" version="14.5.3" type="github">
  <diagram id="8RkW2MXe3cAlULYljkzY" name="Page-1">
    <mxGraphModel dx="981" dy="548" grid="1" gridSize="10" guides="1" tooltips="1" connect="1" arrows="1" fold="1" page="1" pageScale="1" pageWidth="850" pageHeight="1100" math="0" shadow="0">
      <root>
        <mxCell id="0" />
        <mxCell id="1" parent="0" />
        <object label=":Користувач" id="SHGig-kp2oqsI7ru0TNN-1">
          <mxCell style="shape=umlActor;verticalLabelPosition=bottom;verticalAlign=top;html=1;outlineConnect=0;" vertex="1" parent="1">
            <mxGeometry x="109" y="111" width="30" height="60" as="geometry" />
          </mxCell>
        </object>
        <mxCell id="SHGig-kp2oqsI7ru0TNN-8" value="" style="ellipse;whiteSpace=wrap;html=1;aspect=fixed;" vertex="1" parent="1">
          <mxGeometry x="250" y="110" width="60" height="60" as="geometry" />
        </mxCell>
        <mxCell id="SHGig-kp2oqsI7ru0TNN-9" value="" style="endArrow=none;html=1;" edge="1" parent="1">
          <mxGeometry width="50" height="50" relative="1" as="geometry">
            <mxPoint x="250" y="170" as="sourcePoint" />
            <mxPoint x="310" y="170" as="targetPoint" />
          </mxGeometry>
        </mxCell>
        <mxCell id="SHGig-kp2oqsI7ru0TNN-10" value=":Повідомлення" style="text;html=1;strokeColor=none;fillColor=none;align=center;verticalAlign=middle;whiteSpace=wrap;rounded=0;" vertex="1" parent="1">
          <mxGeometry x="254" y="170" width="40" height="20" as="geometry" />
        </mxCell>
        <mxCell id="SHGig-kp2oqsI7ru0TNN-11" value="" style="endArrow=classic;html=1;entryX=0;entryY=0.5;entryDx=0;entryDy=0;" edge="1" parent="1" source="SHGig-kp2oqsI7ru0TNN-1" target="SHGig-kp2oqsI7ru0TNN-8">
          <mxGeometry width="50" height="50" relative="1" as="geometry">
            <mxPoint x="320" y="220" as="sourcePoint" />
            <mxPoint x="370" y="170" as="targetPoint" />
          </mxGeometry>
        </mxCell>
        <mxCell id="SHGig-kp2oqsI7ru0TNN-16" value="" style="endArrow=classic;html=1;exitX=1;exitY=0.5;exitDx=0;exitDy=0;entryX=0;entryY=0.5;entryDx=0;entryDy=0;" edge="1" parent="1" source="SHGig-kp2oqsI7ru0TNN-8">
          <mxGeometry width="50" height="50" relative="1" as="geometry">
            <mxPoint x="320" y="240" as="sourcePoint" />
            <mxPoint x="410" y="140" as="targetPoint" />
          </mxGeometry>
        </mxCell>
        <mxCell id="SHGig-kp2oqsI7ru0TNN-22" value="" style="ellipse;whiteSpace=wrap;html=1;aspect=fixed;" vertex="1" parent="1">
          <mxGeometry x="410" y="110" width="60" height="60" as="geometry" />
        </mxCell>
        <mxCell id="SHGig-kp2oqsI7ru0TNN-23" value="" style="endArrow=none;html=1;" edge="1" parent="1">
          <mxGeometry width="50" height="50" relative="1" as="geometry">
            <mxPoint x="410" y="170" as="sourcePoint" />
            <mxPoint x="470" y="170" as="targetPoint" />
          </mxGeometry>
        </mxCell>
        <mxCell id="SHGig-kp2oqsI7ru0TNN-24" value=":Номер повідомлення" style="text;html=1;strokeColor=none;fillColor=none;align=center;verticalAlign=middle;whiteSpace=wrap;rounded=0;" vertex="1" parent="1">
          <mxGeometry x="420" y="170" width="40" height="20" as="geometry" />
        </mxCell>
        <mxCell id="SHGig-kp2oqsI7ru0TNN-27" value="" style="endArrow=classic;html=1;" edge="1" parent="1">
          <mxGeometry width="50" height="50" relative="1" as="geometry">
            <mxPoint x="170" y="120" as="sourcePoint" />
            <mxPoint x="210" y="120" as="targetPoint" />
          </mxGeometry>
        </mxCell>
        <mxCell id="SHGig-kp2oqsI7ru0TNN-28" value="" style="endArrow=classic;html=1;" edge="1" parent="1">
          <mxGeometry width="50" height="50" relative="1" as="geometry">
            <mxPoint x="340" y="120" as="sourcePoint" />
            <mxPoint x="380" y="120" as="targetPoint" />
          </mxGeometry>
        </mxCell>
        <mxCell id="SHGig-kp2oqsI7ru0TNN-29" value="1:" style="text;html=1;strokeColor=none;fillColor=none;align=center;verticalAlign=middle;whiteSpace=wrap;rounded=0;" vertex="1" parent="1">
          <mxGeometry x="170" y="91" width="40" height="20" as="geometry" />
        </mxCell>
        <mxCell id="SHGig-kp2oqsI7ru0TNN-30" value="2:" style="text;html=1;strokeColor=none;fillColor=none;align=center;verticalAlign=middle;whiteSpace=wrap;rounded=0;" vertex="1" parent="1">
          <mxGeometry x="340" y="90" width="40" height="20" as="geometry" />
        </mxCell>
        <mxCell id="SHGig-kp2oqsI7ru0TNN-31" value="" style="endArrow=none;html=1;entryX=-0.25;entryY=0;entryDx=0;entryDy=0;entryPerimeter=0;" edge="1" parent="1" target="SHGig-kp2oqsI7ru0TNN-24">
          <mxGeometry width="50" height="50" relative="1" as="geometry">
            <mxPoint x="310" y="270" as="sourcePoint" />
            <mxPoint x="400" y="170" as="targetPoint" />
          </mxGeometry>
        </mxCell>
        <mxCell id="SHGig-kp2oqsI7ru0TNN-32" value="" style="ellipse;whiteSpace=wrap;html=1;aspect=fixed;" vertex="1" parent="1">
          <mxGeometry x="280" y="270" width="60" height="60" as="geometry" />
        </mxCell>
        <mxCell id="SHGig-kp2oqsI7ru0TNN-33" value="" style="endArrow=none;html=1;" edge="1" parent="1">
          <mxGeometry width="50" height="50" relative="1" as="geometry">
            <mxPoint x="280" y="330" as="sourcePoint" />
            <mxPoint x="340" y="330" as="targetPoint" />
          </mxGeometry>
        </mxCell>
        <mxCell id="SHGig-kp2oqsI7ru0TNN-34" value=":Копіювання" style="text;html=1;strokeColor=none;fillColor=none;align=center;verticalAlign=middle;whiteSpace=wrap;rounded=0;" vertex="1" parent="1">
          <mxGeometry x="284" y="330" width="40" height="20" as="geometry" />
        </mxCell>
        <object label=":Буфер" id="SHGig-kp2oqsI7ru0TNN-35">
          <mxCell style="shape=umlActor;verticalLabelPosition=bottom;verticalAlign=top;html=1;outlineConnect=0;" vertex="1" parent="1">
            <mxGeometry x="480" y="270" width="30" height="60" as="geometry" />
          </mxCell>
        </object>
        <mxCell id="SHGig-kp2oqsI7ru0TNN-41" value="" style="endArrow=classic;html=1;" edge="1" parent="1">
          <mxGeometry width="50" height="50" relative="1" as="geometry">
            <mxPoint x="385" y="280" as="sourcePoint" />
            <mxPoint x="425" y="280" as="targetPoint" />
          </mxGeometry>
        </mxCell>
        <mxCell id="SHGig-kp2oqsI7ru0TNN-42" value="4:" style="text;html=1;strokeColor=none;fillColor=none;align=center;verticalAlign=middle;whiteSpace=wrap;rounded=0;" vertex="1" parent="1">
          <mxGeometry x="385" y="250" width="40" height="20" as="geometry" />
        </mxCell>
        <mxCell id="SHGig-kp2oqsI7ru0TNN-43" value="" style="endArrow=classic;html=1;" edge="1" parent="1">
          <mxGeometry width="50" height="50" relative="1" as="geometry">
            <mxPoint x="385" y="210" as="sourcePoint" />
            <mxPoint x="365" y="230" as="targetPoint" />
          </mxGeometry>
        </mxCell>
        <mxCell id="SHGig-kp2oqsI7ru0TNN-44" value="3:" style="text;html=1;strokeColor=none;fillColor=none;align=center;verticalAlign=middle;whiteSpace=wrap;rounded=0;" vertex="1" parent="1">
          <mxGeometry x="370" y="210" width="40" height="20" as="geometry" />
        </mxCell>
        <mxCell id="SHGig-kp2oqsI7ru0TNN-45" value="" style="endArrow=classic;html=1;exitX=1;exitY=0.5;exitDx=0;exitDy=0;" edge="1" parent="1" source="SHGig-kp2oqsI7ru0TNN-32" target="SHGig-kp2oqsI7ru0TNN-35">
          <mxGeometry width="50" height="50" relative="1" as="geometry">
            <mxPoint x="360" y="299.71000000000004" as="sourcePoint" />
            <mxPoint x="460" y="299.71000000000004" as="targetPoint" />
          </mxGeometry>
        </mxCell>
        <object label=":Користувач" id="SHGig-kp2oqsI7ru0TNN-46">
          <mxCell style="shape=umlActor;verticalLabelPosition=bottom;verticalAlign=top;html=1;outlineConnect=0;" vertex="1" parent="1">
            <mxGeometry x="79" y="530" width="30" height="60" as="geometry" />
          </mxCell>
        </object>
        <mxCell id="SHGig-kp2oqsI7ru0TNN-47" value="" style="ellipse;whiteSpace=wrap;html=1;aspect=fixed;" vertex="1" parent="1">
          <mxGeometry x="180" y="530" width="60" height="60" as="geometry" />
        </mxCell>
        <mxCell id="SHGig-kp2oqsI7ru0TNN-48" value="" style="endArrow=none;html=1;" edge="1" parent="1">
          <mxGeometry width="50" height="50" relative="1" as="geometry">
            <mxPoint x="180" y="590" as="sourcePoint" />
            <mxPoint x="240" y="590" as="targetPoint" />
          </mxGeometry>
        </mxCell>
        <mxCell id="SHGig-kp2oqsI7ru0TNN-49" value=":Повідомлення" style="text;html=1;strokeColor=none;fillColor=none;align=center;verticalAlign=middle;whiteSpace=wrap;rounded=0;" vertex="1" parent="1">
          <mxGeometry x="184" y="590" width="40" height="20" as="geometry" />
        </mxCell>
        <mxCell id="SHGig-kp2oqsI7ru0TNN-50" value="" style="ellipse;whiteSpace=wrap;html=1;aspect=fixed;" vertex="1" parent="1">
          <mxGeometry x="294" y="530" width="60" height="60" as="geometry" />
        </mxCell>
        <mxCell id="SHGig-kp2oqsI7ru0TNN-51" value="" style="endArrow=none;html=1;" edge="1" parent="1">
          <mxGeometry width="50" height="50" relative="1" as="geometry">
            <mxPoint x="294" y="590" as="sourcePoint" />
            <mxPoint x="354" y="590" as="targetPoint" />
          </mxGeometry>
        </mxCell>
        <mxCell id="SHGig-kp2oqsI7ru0TNN-52" value=":Номер повідомлення" style="text;html=1;strokeColor=none;fillColor=none;align=center;verticalAlign=middle;whiteSpace=wrap;rounded=0;" vertex="1" parent="1">
          <mxGeometry x="304" y="590" width="40" height="20" as="geometry" />
        </mxCell>
        <mxCell id="SHGig-kp2oqsI7ru0TNN-53" value="" style="ellipse;whiteSpace=wrap;html=1;aspect=fixed;" vertex="1" parent="1">
          <mxGeometry x="400" y="530" width="60" height="60" as="geometry" />
        </mxCell>
        <mxCell id="SHGig-kp2oqsI7ru0TNN-54" value="" style="endArrow=none;html=1;" edge="1" parent="1">
          <mxGeometry width="50" height="50" relative="1" as="geometry">
            <mxPoint x="400" y="590" as="sourcePoint" />
            <mxPoint x="460" y="590" as="targetPoint" />
          </mxGeometry>
        </mxCell>
        <mxCell id="SHGig-kp2oqsI7ru0TNN-55" value=":Копіювання" style="text;html=1;strokeColor=none;fillColor=none;align=center;verticalAlign=middle;whiteSpace=wrap;rounded=0;" vertex="1" parent="1">
          <mxGeometry x="404" y="590" width="40" height="20" as="geometry" />
        </mxCell>
        <object label=":Буфер" id="SHGig-kp2oqsI7ru0TNN-56">
          <mxCell style="shape=umlActor;verticalLabelPosition=bottom;verticalAlign=top;html=1;outlineConnect=0;" vertex="1" parent="1">
            <mxGeometry x="510" y="530" width="30" height="60" as="geometry" />
          </mxCell>
        </object>
        <mxCell id="SHGig-kp2oqsI7ru0TNN-57" value="" style="endArrow=none;html=1;" edge="1" parent="1">
          <mxGeometry width="50" height="50" relative="1" as="geometry">
            <mxPoint x="90" y="1320" as="sourcePoint" />
            <mxPoint x="90" y="620" as="targetPoint" />
          </mxGeometry>
        </mxCell>
        <mxCell id="SHGig-kp2oqsI7ru0TNN-58" value="" style="rounded=0;whiteSpace=wrap;html=1;" vertex="1" parent="1">
          <mxGeometry x="80" y="630" width="20" height="40" as="geometry" />
        </mxCell>
        <mxCell id="SHGig-kp2oqsI7ru0TNN-59" value="" style="endArrow=classic;html=1;exitX=1;exitY=0;exitDx=0;exitDy=0;entryX=0;entryY=0;entryDx=0;entryDy=0;" edge="1" parent="1" source="SHGig-kp2oqsI7ru0TNN-58" target="SHGig-kp2oqsI7ru0TNN-60">
          <mxGeometry width="50" height="50" relative="1" as="geometry">
            <mxPoint x="320" y="770" as="sourcePoint" />
            <mxPoint x="200" y="630" as="targetPoint" />
          </mxGeometry>
        </mxCell>
        <mxCell id="SHGig-kp2oqsI7ru0TNN-61" value="" style="endArrow=none;html=1;" edge="1" parent="1" source="SHGig-kp2oqsI7ru0TNN-60">
          <mxGeometry width="50" height="50" relative="1" as="geometry">
            <mxPoint x="199.70999999999998" y="1100" as="sourcePoint" />
            <mxPoint x="199.70999999999998" y="620" as="targetPoint" />
          </mxGeometry>
        </mxCell>
        <mxCell id="SHGig-kp2oqsI7ru0TNN-60" value="" style="rounded=0;whiteSpace=wrap;html=1;" vertex="1" parent="1">
          <mxGeometry x="190" y="630" width="20" height="40" as="geometry" />
        </mxCell>
        <mxCell id="SHGig-kp2oqsI7ru0TNN-62" value="" style="endArrow=none;html=1;" edge="1" parent="1" source="SHGig-kp2oqsI7ru0TNN-63" target="SHGig-kp2oqsI7ru0TNN-60">
          <mxGeometry width="50" height="50" relative="1" as="geometry">
            <mxPoint x="199.71000000000004" y="1100" as="sourcePoint" />
            <mxPoint x="199.71000000000004" y="620" as="targetPoint" />
          </mxGeometry>
        </mxCell>
        <mxCell id="SHGig-kp2oqsI7ru0TNN-63" value="" style="rounded=0;whiteSpace=wrap;html=1;" vertex="1" parent="1">
          <mxGeometry x="190" y="680" width="20" height="80" as="geometry" />
        </mxCell>
        <mxCell id="SHGig-kp2oqsI7ru0TNN-64" value="" style="endArrow=none;html=1;" edge="1" parent="1" target="SHGig-kp2oqsI7ru0TNN-63">
          <mxGeometry width="50" height="50" relative="1" as="geometry">
            <mxPoint x="200" y="1320" as="sourcePoint" />
            <mxPoint x="199.98711111111118" y="670" as="targetPoint" />
          </mxGeometry>
        </mxCell>
        <mxCell id="SHGig-kp2oqsI7ru0TNN-66" value="" style="endArrow=none;html=1;" edge="1" parent="1" source="SHGig-kp2oqsI7ru0TNN-73">
          <mxGeometry width="50" height="50" relative="1" as="geometry">
            <mxPoint x="319.71000000000004" y="1100" as="sourcePoint" />
            <mxPoint x="319.71000000000004" y="620" as="targetPoint" />
          </mxGeometry>
        </mxCell>
        <mxCell id="SHGig-kp2oqsI7ru0TNN-67" value="" style="endArrow=none;html=1;" edge="1" parent="1">
          <mxGeometry width="50" height="50" relative="1" as="geometry">
            <mxPoint x="430" y="1320" as="sourcePoint" />
            <mxPoint x="430" y="620" as="targetPoint" />
          </mxGeometry>
        </mxCell>
        <mxCell id="SHGig-kp2oqsI7ru0TNN-68" value="" style="endArrow=none;html=1;" edge="1" parent="1" source="SHGig-kp2oqsI7ru0TNN-81">
          <mxGeometry width="50" height="50" relative="1" as="geometry">
            <mxPoint x="525" y="1320" as="sourcePoint" />
            <mxPoint x="524.71" y="620" as="targetPoint" />
          </mxGeometry>
        </mxCell>
        <mxCell id="SHGig-kp2oqsI7ru0TNN-70" value="" style="endArrow=classic;html=1;exitX=1;exitY=1;exitDx=0;exitDy=0;entryX=0;entryY=0;entryDx=0;entryDy=0;" edge="1" parent="1" source="SHGig-kp2oqsI7ru0TNN-63" target="SHGig-kp2oqsI7ru0TNN-72">
          <mxGeometry width="50" height="50" relative="1" as="geometry">
            <mxPoint x="220" y="760" as="sourcePoint" />
            <mxPoint x="320" y="760" as="targetPoint" />
          </mxGeometry>
        </mxCell>
        <mxCell id="SHGig-kp2oqsI7ru0TNN-71" value="" style="endArrow=none;html=1;" edge="1" parent="1" source="SHGig-kp2oqsI7ru0TNN-72">
          <mxGeometry width="50" height="50" relative="1" as="geometry">
            <mxPoint x="319.71" y="1230" as="sourcePoint" />
            <mxPoint x="319.71000000000004" y="750" as="targetPoint" />
          </mxGeometry>
        </mxCell>
        <mxCell id="SHGig-kp2oqsI7ru0TNN-72" value="" style="rounded=0;whiteSpace=wrap;html=1;" vertex="1" parent="1">
          <mxGeometry x="310" y="760" width="20" height="40" as="geometry" />
        </mxCell>
        <mxCell id="SHGig-kp2oqsI7ru0TNN-73" value="" style="rounded=0;whiteSpace=wrap;html=1;" vertex="1" parent="1">
          <mxGeometry x="310" y="1010" width="20" height="80" as="geometry" />
        </mxCell>
        <mxCell id="SHGig-kp2oqsI7ru0TNN-75" value="" style="endArrow=none;html=1;" edge="1" parent="1" target="SHGig-kp2oqsI7ru0TNN-73">
          <mxGeometry width="50" height="50" relative="1" as="geometry">
            <mxPoint x="320" y="1320" as="sourcePoint" />
            <mxPoint x="319.71000000000004" y="620" as="targetPoint" />
          </mxGeometry>
        </mxCell>
        <mxCell id="SHGig-kp2oqsI7ru0TNN-78" value="" style="endArrow=classic;html=1;exitX=1;exitY=0;exitDx=0;exitDy=0;entryX=0;entryY=0;entryDx=0;entryDy=0;" edge="1" parent="1" target="SHGig-kp2oqsI7ru0TNN-79">
          <mxGeometry width="50" height="50" relative="1" as="geometry">
            <mxPoint x="330" y="1090" as="sourcePoint" />
            <mxPoint x="430" y="1090" as="targetPoint" />
          </mxGeometry>
        </mxCell>
        <mxCell id="SHGig-kp2oqsI7ru0TNN-79" value="" style="rounded=0;whiteSpace=wrap;html=1;" vertex="1" parent="1">
          <mxGeometry x="420" y="1090" width="20" height="40" as="geometry" />
        </mxCell>
        <mxCell id="SHGig-kp2oqsI7ru0TNN-80" value="" style="rounded=0;whiteSpace=wrap;html=1;" vertex="1" parent="1">
          <mxGeometry x="420" y="1180" width="20" height="80" as="geometry" />
        </mxCell>
        <mxCell id="SHGig-kp2oqsI7ru0TNN-81" value="" style="rounded=0;whiteSpace=wrap;html=1;" vertex="1" parent="1">
          <mxGeometry x="515" y="1260" width="20" height="40" as="geometry" />
        </mxCell>
        <mxCell id="SHGig-kp2oqsI7ru0TNN-82" value="" style="endArrow=none;html=1;" edge="1" parent="1" target="SHGig-kp2oqsI7ru0TNN-81">
          <mxGeometry width="50" height="50" relative="1" as="geometry">
            <mxPoint x="525" y="1320" as="sourcePoint" />
            <mxPoint x="524.7100000000003" y="620" as="targetPoint" />
          </mxGeometry>
        </mxCell>
        <mxCell id="SHGig-kp2oqsI7ru0TNN-83" value="" style="endArrow=classic;html=1;exitX=1;exitY=0;exitDx=0;exitDy=0;entryX=0;entryY=0;entryDx=0;entryDy=0;" edge="1" parent="1">
          <mxGeometry width="50" height="50" relative="1" as="geometry">
            <mxPoint x="425" y="1260" as="sourcePoint" />
            <mxPoint x="515" y="1260" as="targetPoint" />
          </mxGeometry>
        </mxCell>
      </root>
    </mxGraphModel>
  </diagram>
</mxfile>
